<svg fill="none" xmlns="http://www.w3.org/2000/svg" viewBox="0 0 145 130" aria-hidden="true" role="img"><g clip-path="url(#clip0_11370_55983)"><path d="M88.6 8.344C80.99 4.897 69.503-.272 67.78-.99c-3.303-1.436-6.893-1.005-10.052-.718L0 4.467 13.642 132.27l90.324-9.621L92.334 13.083c-.143-1.15-.574-2.442-2.154-3.734-.43-.43-1.005-.718-1.58-1.005z" fill="url(#paint0_linear_11370_55983)"></path><path d="M32.31 13.943l-15.939 1.723c-.287 0-.718-.144-.718-.574 0-.288.144-.718.575-.718l15.94-1.724c.287 0 .717.144.717.575 0 .43-.287.718-.574.718zm1.293 6.318c0-.287-.287-.574-.718-.574l-15.94 1.723c-.287 0-.574.287-.574.718 0 .287.288.574.718.574l15.94-1.723c.287 0 .574-.287.574-.718zm46.814 17.376c0-.288-.288-.575-.718-.575l-60.312 6.462c-.287 0-.575.288-.575.718 0 .288.288.575.718.575l60.312-6.462c.431 0 .575-.287.575-.718zm.718 7.036c0-.287-.288-.574-.718-.574L20.105 50.56c-.287 0-.575.287-.575.718 0 .287.288.574.718.574L80.56 45.39c.431 0 .718-.287.575-.718zm.861 7.036c0-.287-.287-.574-.718-.574l-60.312 6.462c-.287 0-.574.287-.574.718 0 .287.287.574.718.574l60.312-6.462c.287 0 .574-.287.574-.718zm.718 7.037c0-.287-.287-.575-.718-.575l-60.311 6.462c-.288 0-.575.288-.575.718 0 .288.287.575.718.575l60.312-6.462c.287 0 .574-.287.574-.718zm.718 7.036c0-.287-.287-.574-.718-.574L22.403 71.67c-.288 0-.575.287-.575.718 0 .287.287.574.718.574L82.858 66.5c.287 0 .574-.287.574-.718zM61.605 75.26c0-.288-.287-.575-.718-.575L23.12 78.706c-.287 0-.574.287-.574.718 0 .287.287.575.718.575l37.767-4.021c.287 0 .574-.287.574-.718zm3.159 28.145c0-.143-.143-.143 0 0-.143-.143-.143-.143-.287-.143l-38.915 4.164h-.144v.287c0 .144.144.144.144.144l38.915-4.164c.144 0 .144-.144.144-.144l.143-.144z" fill="#F66DBC"></path><path d="M80.416 13.082c1.149 1.436 2.01 2.297 2.01 2.297 1.724-1.005 3.59-5.743 6.893-6.605-3.877-1.58-6.749 2.441-8.903 4.308z" fill="#9AAA97"></path><path d="M27.142 105.419c-.144 0-.288 0-.431-.144-.431-.287-.718-.718-.575-1.148l1.867-8.33c-2.154.575-4.595.575-6.749-.143l-.43-.143c-.144 0-.288-.287-.144-.431 0-.144.287-.287.43-.144l.431.144c2.298.718 4.595.718 6.75 0l.574-2.441a1.558 1.558 0 011.149-1.15c.574-.143 1.148 0 1.58.575.286.288.43.862.43 1.293 0 .43-.287.861-.718 1.148-.718.431-1.58.862-2.441 1.15l-2.01 8.615c0 .287.143.431.287.431.143 0 .43.144.574-.144l5.026-6.174c.287-.287.574-.431 1.005-.431.43 0 .718.287.862.718l2.154 5.6c.143.287.287.287.43.287.144 0 .288-.143.431-.287l3.59-14.647c0-.144.144-.287.431-.287.144 0 .287.144.287.43l-3.59 14.648c-.143.431-.43.718-1.005.861a1.08 1.08 0 01-1.005-.718l-2.585-5.6a.309.309 0 00-.287-.287c-.144 0-.287 0-.43.144l-5.027 6.174c-.287.287-.574.431-.861.431zM30.3 92.064h-.287c-.288.144-.575.288-.718.718l-.431 2.01c.718-.287 1.292-.574 1.867-1.005a.79.79 0 00.43-.718c0-.287 0-.574-.287-.718-.143-.143-.287-.287-.574-.287zm10.054 10.339c-.144 0-.144 0-.287-.144-.144-.144-.144-.287 0-.431l1.867-1.579c.287-.287.861-.431 1.292-.431.43 0 .861.287 1.149.574.287.287.718.431 1.148.431l2.298-.574v-.144c-.143-.43 0-.718.43-1.005a1.226 1.226 0 011.006 0c.287.144.287.574.287.862-.143.287-.287.574-.574.574.574.718 1.436 1.149 2.441 1.149l9.478-1.149c.143 0 .287.143.287.287a.308.308 0 01-.287.287l-9.478 1.149c-1.292.144-2.441-.431-3.16-1.58l-2.44.575c-.575.143-1.293-.144-1.724-.575a.79.79 0 00-.718-.43c-.287 0-.574 0-.861.287l-1.867 1.579c-.143.288-.143.288-.287.288zm8.329-2.872s-.144.143 0 0a.309.309 0 00-.288.287v.287h.144c.144 0 .144-.144.144-.144s0-.143-.144-.287c.287 0 .144-.143.144-.143z" fill="#F66DBC"></path><path d="M88.601 8.344C80.847 4.754 69.79-.13 67.78-.99 71.513.733 79.267 13.944 79.267 13.944c2.298-1.005 5.888-7.754 10.77-4.595-.287-.43-.861-.718-1.436-1.005z" fill="url(#paint1_linear_11370_55983)"></path><path d="M98.078 67.363c-8.042 5.888-15.653 12.206-22.976 18.955-.575.431-1.005.862-1.58 1.436l-7.18 6.75c-.143.143-.143.287-.143.574 0 0 0 .144.143.144l-.287.143c-.287.144-.43.431-.718.718l-.574.862c-.144.143-.144.287-.144.43v.144h.144l.574-.143.43-.144.862-.43.288-.144.143.143c.144.144.287.144.575 0l8.472-5.026c.575-.287 1.149-.718 1.723-1.005 7.18-4.308 14.073-9.047 20.679-13.93l-.431-9.477z" fill="#9AAA97"></path><path d="M133.98 24.283l-5.457 5.6-1.723-1.58 5.6-5.6 1.58 1.58z" fill="url(#paint2_linear_11370_55983)"></path><path d="M142.164 17.389c-.287-.144-.574-.144-.718 0l-1.723 1.436-.862.861 3.734 3.734.862-.862 1.435-1.723c.144-.143.144-.574 0-.718a24.438 24.438 0 00-2.728-2.728z" fill="url(#paint3_linear_11370_55983)"></path><path d="M67.493 95.938l-.287.287c-.287.287-.575.43-.862.575l-.861.43c-.144.144-.431.144-.575-.143-.143-.144-.143-.431-.143-.575l.43-.861c.144-.287.431-.575.575-.862l.287-.287 1.436 1.436z" fill="#C3D2C3"></path><path d="M66.201 94.79l-.143.143c.143.574 1.005 1.292 1.148 1.292l.288-.287" fill="#9AAA97"></path><path d="M77.258 88.757a15.368 15.368 0 01-3.734-3.734z" fill="#fff"></path><path d="M77.258 88.757a15.368 15.368 0 01-3.734-3.734" stroke="#000" stroke-width=".217" stroke-miterlimit="10"></path><path d="M113.157 54.438L99.945 67.936a293.177 293.177 0 01-24.268 22.115l-7.61 6.174c-.144.144-.288.144-.575 0-.574-.43-1.149-.861-1.58-1.58a.437.437 0 010-.574l6.175-7.61a291.778 291.778 0 0121.97-24.125l13.499-13.211 5.601 5.313zm26.709-35.182a.916.916 0 00-.862 0l-2.01 1.723c-5.887 5.17-11.775 10.483-17.232 15.94l-9.477 9.477 5.6 5.6 9.478-9.477c5.6-5.6 10.913-11.344 15.939-17.232l1.723-2.01c.144-.287.287-.575 0-.862a16.434 16.434 0 00-3.159-3.159z" fill="url(#paint4_linear_11370_55983)"></path><path d="M115.743 52.283l-2.298 2.298h-.143l-5.601-5.6v-.144l2.298-2.298h.143l5.601 5.6v.144z" fill="url(#paint5_linear_11370_55983)"></path><path d="M133.119 20.834l-20.104 20.104c-.144.143-.144.43 0 .718.144.144.431.144.718 0l20.104-20.104-.718-.718z" fill="url(#paint6_linear_11370_55983)"></path><path d="M65.34 95.795l-.431.861a.437.437 0 000 .575c.143.287.43.287.717.144l.862-.431c-.43-.431-.862-.718-1.149-1.15z" fill="#14A800"></path><path d="M107.126 49.7c3.303 1.723 5.026 5.744 4.021 6.893l2.01-2.01-5.313-5.313-.718.43z" fill="url(#paint7_linear_11370_55983)"></path></g><defs><linearGradient id="paint0_linear_11370_55983" x1="37.52" y1="92.947" x2="83.393" y2="-.331" gradientUnits="userSpaceOnUse"><stop offset=".45" stop-color="#E4EBE4"></stop><stop offset=".93" stop-color="#C3D2C3"></stop></linearGradient><linearGradient id="paint1_linear_11370_55983" x1="74.078" y1="13.921" x2="79.621" y2="2.818" gradientUnits="userSpaceOnUse"><stop offset=".264" stop-color="#E4EBE4"></stop><stop offset="1" stop-color="#F2F7F2"></stop></linearGradient><linearGradient id="paint2_linear_11370_55983" x1="134.808" y1="30.296" x2="127.044" y2="23.096" gradientUnits="userSpaceOnUse"><stop offset=".046" stop-color="#DEBE1A"></stop><stop offset=".243" stop-color="#DBBC1A"></stop><stop offset=".372" stop-color="#D3B41A"></stop><stop offset=".481" stop-color="#C4A61B"></stop><stop offset=".58" stop-color="#AE941C"></stop><stop offset=".671" stop-color="#937B1D"></stop><stop offset=".756" stop-color="#725E1F"></stop><stop offset=".78" stop-color="#67541F"></stop></linearGradient><linearGradient id="paint3_linear_11370_55983" x1="140.617" y1="18.884" x2="145.139" y2="23.081" gradientUnits="userSpaceOnUse"><stop offset=".055" stop-color="#F66DBC"></stop><stop offset=".213" stop-color="#EF6AB7"></stop><stop offset=".435" stop-color="#DD61AA"></stop><stop offset=".694" stop-color="#BF5395"></stop><stop offset=".86" stop-color="#A84884"></stop></linearGradient><linearGradient id="paint4_linear_11370_55983" x1="101.42" y1="55.361" x2="105.827" y2="59.827" gradientUnits="userSpaceOnUse"><stop offset=".448" stop-color="#1F57C3"></stop><stop offset=".635" stop-color="#1F56C0"></stop><stop offset=".758" stop-color="#1D53B8"></stop><stop offset=".862" stop-color="#1B4FA9"></stop><stop offset=".935" stop-color="#194A99"></stop></linearGradient><linearGradient id="paint5_linear_11370_55983" x1="109.692" y1="48.503" x2="115.401" y2="54.417" gradientUnits="userSpaceOnUse"><stop offset=".046" stop-color="#DEBE1A"></stop><stop offset=".243" stop-color="#DBBC1A"></stop><stop offset=".372" stop-color="#D3B41A"></stop><stop offset=".481" stop-color="#C4A61B"></stop><stop offset=".58" stop-color="#AE941C"></stop><stop offset=".671" stop-color="#937B1D"></stop><stop offset=".756" stop-color="#725E1F"></stop><stop offset=".78" stop-color="#67541F"></stop></linearGradient><linearGradient id="paint6_linear_11370_55983" x1="119.606" y1="27.502" x2="128.753" y2="37.186" gradientUnits="userSpaceOnUse"><stop offset=".046" stop-color="#DEBE1A"></stop><stop offset=".243" stop-color="#DBBC1A"></stop><stop offset=".372" stop-color="#D3B41A"></stop><stop offset=".481" stop-color="#C4A61B"></stop><stop offset=".58" stop-color="#AE941C"></stop><stop offset=".671" stop-color="#937B1D"></stop><stop offset=".756" stop-color="#725E1F"></stop><stop offset=".78" stop-color="#67541F"></stop></linearGradient><linearGradient id="paint7_linear_11370_55983" x1="108.447" y1="51.614" x2="112.523" y2="55.963" gradientUnits="userSpaceOnUse"><stop stop-color="#133970" stop-opacity="0"></stop><stop offset=".611" stop-color="#133970"></stop></linearGradient><clipPath id="clip0_11370_55983"><rect width="145" height="130" fill="#fff"></rect></clipPath></defs></svg>